<svg width="24" height="19" viewBox="0 0 24 19" fill="none" xmlns="http://www.w3.org/2000/svg">
<path d="M1.93561 18.8593C1.47283 18.8593 1.0679 18.6825 0.720821 18.3288C0.373737 17.9751 0.200195 17.5625 0.200195 17.0909V1.76452C0.200195 1.29294 0.373737 0.880307 0.720821 0.526622C1.0679 0.172936 1.47283 -0.00390625 1.93561 -0.00390625H21.6037C22.0665 -0.00390625 22.4714 0.172936 22.8185 0.526622C23.1656 0.880307 23.3391 1.29294 23.3391 1.76452V17.0909C23.3391 17.5625 23.1656 17.9751 22.8185 18.3288C22.4714 18.6825 22.0665 18.8593 21.6037 18.8593H1.93561ZM11.7696 9.95824L1.93561 3.38558V17.0909H21.6037V3.38558L11.7696 9.95824ZM11.7696 8.18981L21.488 1.76452H2.08023L11.7696 8.18981ZM1.93561 3.38558V1.76452V3.38558V17.0909V3.38558Z" fill="white"/>
</svg>
